{
    "asset" : {
        "generator" : "Khronos glTF Blender I/O v1.5.17",
        "version" : "2.0"
    },
    "scene" : 0,
    "scenes" : [
        {
            "name" : "Scene",
            "nodes" : [
                6,
                7,
                8,
                9
            ]
        }
    ],
    "nodes" : [
        {
            "mesh" : 0,
            "name" : "Frame_ComputerFrame_0"
        },
        {
            "children" : [
                0
            ],
            "name" : "Frame",
            "rotation" : [
                -0.7071068286895752,
                0,
                0,
                0.7071067094802856
            ],
            "scale" : [
                100,
                100,
                100
            ],
            "translation" : [
                0,
                0.9755473732948303,
                0
            ]
        },
        {
            "mesh" : 1,
            "name" : "Screen_ComputerScreen_0"
        },
        {
            "children" : [
                2
            ],
            "name" : "Screen",
            "rotation" : [
                0,
                -1,
                0,
                1.9470721213110664e-07
            ],
            "scale" : [
                100,
                100,
                88.23529815673828
            ],
            "translation" : [
                0,
                0.6500000357627869,
                -10.30000114440918
            ]
        },
        {
            "children" : [
                1,
                3
            ],
            "name" : "RootNode"
        },
        {
            "children" : [
                4
            ],
            "name" : "6d4c164f62674ba9b12714fec0584379.fbx",
            "rotation" : [
                0.7071068286895752,
                0,
                0,
                0.7071068286895752
            ]
        },
        {
            "children" : [
                5
            ],
            "name" : "Sketchfab_model",
            "rotation" : [
                -0.7071068286895752,
                0,
                0,
                0.7071068286895752
            ]
        },
        {
            "name" : "Light",
            "rotation" : [
                0.16907575726509094,
                0.7558803558349609,
                -0.27217137813568115,
                0.570947527885437
            ],
            "translation" : [
                4.076245307922363,
                5.903861999511719,
                -1.0054539442062378
            ]
        },
        {
            "name" : "Camera",
            "rotation" : [
                0.483536034822464,
                0.33687159419059753,
                -0.20870360732078552,
                0.7804827094078064
            ],
            "translation" : [
                7.358891487121582,
                4.958309173583984,
                6.925790786743164
            ]
        },
        {
            "mesh" : 2,
            "name" : "Plane",
            "rotation" : [
                0.7071068286895752,
                0,
                0,
                0.7071068286895752
            ],
            "scale" : [
                14.830747604370117,
                9.18872356414795,
                8.560325622558594
            ],
            "translation" : [
                0,
                10.690824508666992,
                -10.650283813476562
            ]
        }
    ],
    "materials" : [
        {
            "doubleSided" : true,
            "emissiveFactor" : [
                1,
                1,
                1
            ],
            "emissiveTexture" : {
                "index" : 0
            },
            "name" : "ComputerFrame",
            "pbrMetallicRoughness" : {
                "baseColorTexture" : {
                    "index" : 1
                },
                "metallicFactor" : 0
            }
        },
        {
            "doubleSided" : true,
            "emissiveFactor" : [
                1,
                1,
                1
            ],
            "emissiveTexture" : {
                "index" : 2
            },
            "name" : "ComputerScreen",
            "pbrMetallicRoughness" : {
                "baseColorTexture" : {
                    "index" : 3
                },
                "metallicFactor" : 0,
                "metallicRoughnessTexture" : {
                    "index" : 4
                }
            }
        },
        {
            "doubleSided" : true,
            "name" : "Material.001",
            "pbrMetallicRoughness" : {
                "baseColorTexture" : {
                    "index" : 5
                },
                "metallicFactor" : 0,
                "roughnessFactor" : 0.5
            }
        }
    ],
    "meshes" : [
        {
            "name" : "Frame_ComputerFrame_0",
            "primitives" : [
                {
                    "attributes" : {
                        "POSITION" : 0,
                        "NORMAL" : 1,
                        "TEXCOORD_0" : 2
                    },
                    "indices" : 3,
                    "material" : 0
                }
            ]
        },
        {
            "name" : "Screen_ComputerScreen_0",
            "primitives" : [
                {
                    "attributes" : {
                        "POSITION" : 4,
                        "NORMAL" : 5,
                        "TEXCOORD_0" : 6
                    },
                    "indices" : 7,
                    "material" : 1
                }
            ]
        },
        {
            "name" : "Plane",
            "primitives" : [
                {
                    "attributes" : {
                        "POSITION" : 8,
                        "NORMAL" : 9,
                        "TEXCOORD_0" : 10
                    },
                    "indices" : 11,
                    "material" : 2
                }
            ]
        }
    ],
    "textures" : [
        {
            "sampler" : 0,
            "source" : 0
        },
        {
            "sampler" : 0,
            "source" : 1
        },
        {
            "sampler" : 0,
            "source" : 2
        },
        {
            "sampler" : 0,
            "source" : 3
        },
        {
            "sampler" : 0,
            "source" : 4
        },
        {
            "sampler" : 0,
            "source" : 5
        }
    ],
    "images" : [
        {
            "mimeType" : "image/png",
            "name" : "ComputerFrame_emissive",
            "uri" : "ComputerFrame_emissive.png"
        },
        {
            "mimeType" : "image/png",
            "name" : "ComputerFrame_baseColor",
            "uri" : "ComputerFrame_baseColor.png"
        },
        {
            "mimeType" : "image/png",
            "name" : "ComputerScreen_emissive",
            "uri" : "ComputerScreen_emissive.png"
        },
        {
            "mimeType" : "image/png",
            "name" : "ComputerScreen_baseColor",
            "uri" : "ComputerScreen_baseColor.png"
        },
        {
            "mimeType" : "image/png",
            "name" : "ComputerScreen_metallicRoughness",
            "uri" : "ComputerScreen_metallicRoughness.png"
        },
        {
            "mimeType" : "image/jpeg",
            "name" : "Screenshot_208",
            "uri" : "Screenshot_208.jpg"
        }
    ],
    "accessors" : [
        {
            "bufferView" : 0,
            "componentType" : 5126,
            "count" : 9351,
            "max" : [
                0.15199999511241913,
                0.10499999672174454,
                3.4924596548080444e-09
            ],
            "min" : [
                -0.15200001001358032,
                -0.09603267908096313,
                -0.009755848906934261
            ],
            "type" : "VEC3"
        },
        {
            "bufferView" : 1,
            "componentType" : 5126,
            "count" : 9351,
            "type" : "VEC3"
        },
        {
            "bufferView" : 2,
            "componentType" : 5126,
            "count" : 9351,
            "type" : "VEC2"
        },
        {
            "bufferView" : 3,
            "componentType" : 5123,
            "count" : 24492,
            "type" : "SCALAR"
        },
        {
            "bufferView" : 4,
            "componentType" : 5126,
            "count" : 328,
            "max" : [
                0.15200001001358032,
                0.19908371567726135,
                0.006765663158148527
            ],
            "min" : [
                -0.15199998021125793,
                -0.0019489675760269165,
                -0.004622588865458965
            ],
            "type" : "VEC3"
        },
        {
            "bufferView" : 5,
            "componentType" : 5126,
            "count" : 328,
            "type" : "VEC3"
        },
        {
            "bufferView" : 6,
            "componentType" : 5126,
            "count" : 328,
            "type" : "VEC2"
        },
        {
            "bufferView" : 7,
            "componentType" : 5123,
            "count" : 474,
            "type" : "SCALAR"
        },
        {
            "bufferView" : 8,
            "componentType" : 5126,
            "count" : 4,
            "max" : [
                1,
                0,
                1
            ],
            "min" : [
                -1,
                0,
                -1
            ],
            "type" : "VEC3"
        },
        {
            "bufferView" : 9,
            "componentType" : 5126,
            "count" : 4,
            "type" : "VEC3"
        },
        {
            "bufferView" : 10,
            "componentType" : 5126,
            "count" : 4,
            "type" : "VEC2"
        },
        {
            "bufferView" : 11,
            "componentType" : 5123,
            "count" : 6,
            "type" : "SCALAR"
        }
    ],
    "bufferViews" : [
        {
            "buffer" : 0,
            "byteLength" : 112212,
            "byteOffset" : 0
        },
        {
            "buffer" : 0,
            "byteLength" : 112212,
            "byteOffset" : 112212
        },
        {
            "buffer" : 0,
            "byteLength" : 74808,
            "byteOffset" : 224424
        },
        {
            "buffer" : 0,
            "byteLength" : 48984,
            "byteOffset" : 299232
        },
        {
            "buffer" : 0,
            "byteLength" : 3936,
            "byteOffset" : 348216
        },
        {
            "buffer" : 0,
            "byteLength" : 3936,
            "byteOffset" : 352152
        },
        {
            "buffer" : 0,
            "byteLength" : 2624,
            "byteOffset" : 356088
        },
        {
            "buffer" : 0,
            "byteLength" : 948,
            "byteOffset" : 358712
        },
        {
            "buffer" : 0,
            "byteLength" : 48,
            "byteOffset" : 359660
        },
        {
            "buffer" : 0,
            "byteLength" : 48,
            "byteOffset" : 359708
        },
        {
            "buffer" : 0,
            "byteLength" : 32,
            "byteOffset" : 359756
        },
        {
            "buffer" : 0,
            "byteLength" : 12,
            "byteOffset" : 359788
        }
    ],
    "samplers" : [
        {
            "magFilter" : 9729,
            "minFilter" : 9987
        }
    ],
    "buffers" : [
        {
            "byteLength" : 359800,
            "uri" : "laptop.bin"
        }
    ]
}
